<?xml version="1.0" standalone="no"?>
<!DOCTYPE svg PUBLIC "-//W3C//DTD SVG 20010904//EN"
 "http://www.w3.org/TR/2001/REC-SVG-20010904/DTD/svg10.dtd">
<svg version="1.0" xmlns="http://www.w3.org/2000/svg"
 width="144.000000pt" height="144.000000pt" viewBox="0 0 144.000000 144.000000"
 preserveAspectRatio="xMidYMid meet">
<metadata>
Created by potrace 1.11, written by Peter Selinger 2001-2013
</metadata>
<g transform="translate(0.000000,144.000000) scale(0.100000,-0.100000)"
fill="#000000" stroke="none">
<path d="M149 1423 c-7 -93 -3 -991 4 -1000 9 -13 210 -18 250 -7 15 5 17 22
17 170 l0 164 123 1 c124 0 136 2 220 19 132 27 232 125 254 248 36 202 -60
354 -257 406 -41 10 -127 14 -332 15 -260 1 -278 0 -279 -16z m541 -228 c32
-16 60 -61 60 -95 0 -11 -6 -35 -14 -53 -21 -52 -60 -65 -197 -66 l-119 -2 0
116 0 115 120 0 c89 0 129 -4 150 -15z"/>
<path d="M1100 1022 c0 -28 -43 -139 -66 -169 -14 -18 -24 -36 -24 -40 0 -12
284 -10 292 2 12 17 9 203 -3 211 -6 3 -54 7 -105 8 -70 1 -94 -2 -94 -12z"/>
<path d="M700 681 c-25 -3 -80 -6 -122 -6 l-78 0 -1 -140 c-1 -405 1 -509 10
-518 11 -11 247 -14 258 -3 4 3 7 77 7 164 l1 157 225 5 225 5 0 110 0 110
-226 3 -226 2 1 58 c1 63 1 64 -74 53z"/>
<path d="M195 318 c-33 -29 -39 -88 -12 -115 15 -15 14 -19 -13 -50 -78 -88
19 -181 145 -138 25 9 44 11 56 4 30 -16 49 -11 49 14 0 13 -5 28 -10 33 -7 7
-6 21 3 45 18 47 16 63 -10 67 -17 3 -25 -4 -35 -28 l-13 -32 -30 26 -30 26
28 25 c57 53 26 133 -54 142 -38 4 -50 1 -74 -19z m89 -44 c12 -11 13 -20 6
-34 -16 -29 -30 -33 -51 -14 -22 20 -24 35 -7 52 16 16 33 15 52 -4z m-4 -169
c35 -36 33 -42 -17 -49 -26 -4 -63 15 -63 32 0 16 28 52 40 52 3 0 21 -16 40
-35z"/>
</g>
</svg>
